<?xml version="1.0" encoding="UTF-8" standalone="no"?>
<!DOCTYPE svg PUBLIC "-//W3C//DTD SVG 1.1//EN" "http://www.w3.org/Graphics/SVG/1.1/DTD/svg11.dtd">
<svg width="100%" height="100%" viewBox="0 0 3508 4961" version="1.1" xmlns="http://www.w3.org/2000/svg" xmlns:xlink="http://www.w3.org/1999/xlink" xml:space="preserve" xmlns:serif="http://www.serif.com/" style="fill-rule:evenodd;clip-rule:evenodd;stroke-linecap:round;stroke-linejoin:round;stroke-miterlimit:1.5;">
    <g id="face">
        <g transform="matrix(1.089917,-0.000521,0.000388,0.812231,-410.542326,348.800313)">
            <g id="face1" serif:id="face">
                <path d="M2561.303,2054.385C2585.705,2120.681 2599.032,2192.33 2599.032,2267.075C2599.032,2606.653 2323.94,2882.347 1985.104,2882.347C1646.268,2882.347 1371.176,2606.653 1371.176,2267.075C1371.176,2193.708 1384.017,2123.323 1407.568,2058.057C1460.116,1725.05 1698.868,1473.386 1984.996,1473.569C2269.859,1473.752 2507.586,1723.501 2561.303,2054.385Z" style="fill:rgb(99,163,117);"/>
            </g>
        </g>
    </g>
    <g id="arms-ears" serif:id="arms/ears">
        <g transform="matrix(1,0,0,1,0,15.381586)">
            <path d="M939.788,3343.683C952.032,3335.581 996.591,3294.592 1012.696,3218.845C1030.144,3136.778 1028.649,3108.644 1060.018,2995.236C1088.631,2891.789 1290.848,2616.388 1290.848,2616.388L1258.933,2596.233C1258.933,2596.233 919.979,2821.836 818.732,2941.79C663.398,3125.828 693.275,3252.886 704.28,3291.75C721.026,3350.887 800.314,3380.86 838.541,3376.836C880.36,3372.434 902.264,3368.511 939.788,3343.683Z" style="fill:rgb(99,163,117);stroke:rgb(99,163,117);stroke-width:37.92px;"/>
        </g>
        <g transform="matrix(-1,0,0,1,3534.02797,18.740052)">
            <path d="M939.788,3343.683C952.032,3335.581 996.591,3294.592 1012.696,3218.845C1030.144,3136.778 1028.649,3108.644 1060.018,2995.236C1088.631,2891.789 1290.848,2616.388 1290.848,2616.388L1258.933,2596.233C1258.933,2596.233 919.979,2821.836 818.732,2941.79C663.398,3125.828 693.275,3252.886 704.28,3291.75C721.026,3350.887 800.314,3380.86 838.541,3376.836C880.36,3372.434 902.264,3368.511 939.788,3343.683Z" style="fill:rgb(99,163,117);stroke:rgb(99,163,117);stroke-width:37.92px;"/>
        </g>
        <g>
            <path d="M1243.547,1421.245L1187.421,1469.667C1187.421,1469.667 1255.652,1614.934 1308.477,1656.753C1361.301,1698.572 1380.009,1718.381 1380.009,1718.381L1430.632,1653.451C1430.632,1653.451 1319.018,1536.024 1300.773,1511.487C1264.167,1462.253 1243.547,1421.245 1243.547,1421.245Z" style="fill:rgb(99,163,117);stroke:rgb(99,163,117);stroke-width:37.92px;"/>
            <path d="M1327.185,1118.607C1327.185,1118.607 1417.426,1195.642 1461.446,1350.813C1505.467,1505.984 1505.467,1596.225 1505.467,1596.225L1590.205,1569.813C1590.205,1569.813 1585.803,1259.471 1475.753,1093.295C1365.703,927.119 1172.84,885.575 1037.202,951.055C770.723,1079.7 819.789,1361.317 826.181,1395.108C833.259,1432.529 879.28,1562.11 1039.954,1500.482C1200.627,1438.853 1327.185,1118.607 1327.185,1118.607Z" style="fill:rgb(99,163,117);stroke:rgb(99,163,117);stroke-width:37.92px;"/>
        </g>
        <g transform="matrix(-1,0,0,1,3529.672017,0)">
            <path d="M1243.547,1421.245L1187.421,1469.667C1187.421,1469.667 1255.652,1614.934 1308.477,1656.753C1361.301,1698.572 1380.009,1718.381 1380.009,1718.381L1430.632,1653.451C1430.632,1653.451 1319.018,1536.024 1300.773,1511.487C1264.167,1462.253 1243.547,1421.245 1243.547,1421.245Z" style="fill:rgb(99,163,117);stroke:rgb(99,163,117);stroke-width:37.92px;"/>
            <path d="M1327.185,1118.607C1327.185,1118.607 1417.426,1195.642 1461.446,1350.813C1505.467,1505.984 1505.467,1596.225 1505.467,1596.225L1590.205,1569.813C1590.205,1569.813 1585.803,1259.471 1475.753,1093.295C1365.703,927.119 1172.84,885.575 1037.202,951.055C770.723,1079.7 819.789,1361.317 826.181,1395.108C833.259,1432.529 879.28,1562.11 1039.954,1500.482C1200.627,1438.853 1327.185,1118.607 1327.185,1118.607Z" style="fill:rgb(99,163,117);stroke:rgb(99,163,117);stroke-width:37.92px;"/>
        </g>
    </g>
    <g id="footsies">
        <g transform="matrix(1.017881,0,0,1.017881,-9.193238,-57.908083)">
            <path d="M1234.979,4019.749C1351.909,3858.427 1120.329,3531.138 941.97,3517.645C816.352,3508.142 786.819,3656.229 853.93,3835.415C909.574,3983.986 1070.253,4097.517 1174.451,4103.663C1305.619,4111.399 1401.577,3970.641 1400.274,3879.38C1399.964,3857.617 1412.469,3675.91 1243.233,3520.396C1127.166,3413.741 955.726,3452.99 955.726,3452.99C954.247,3442.112 1166.499,3495.424 1255.723,3680.794C1356.932,3891.064 1239.934,4018.513 1234.979,4019.749Z" style="fill:rgb(99,163,117);"/>
            <path d="M961.986,3451.749C994.606,3445.779 1090.071,3434.926 1177.585,3475.862C1217.557,3494.558 1240.837,3516.676 1253.596,3528.859C1290.949,3564.53 1356.097,3636.379 1387.117,3748.652C1405.815,3816.324 1403.254,3867.427 1403.46,3879.883C1405.014,3973.615 1307.304,4117.244 1172.849,4109.261C1078.155,4103.639 939.429,4013.473 868.968,3888.706C855.004,3863.98 846.278,3842.827 837.211,3816.534C787.557,3672.543 801.818,3552.42 878.995,3515.825C927.6,3492.777 1001.943,3503.759 1083.647,3564.767C1181.094,3637.532 1267.427,3765.937 1282.065,3882.591C1290.653,3830.995 1282.782,3788.663 1280.155,3774.984C1278.011,3763.82 1267.089,3707.93 1233.595,3650.035C1209.898,3609.076 1184.011,3582.26 1176.689,3574.702C1147.817,3544.9 1116.198,3520.952 1085.721,3502.234C1071.412,3493.446 1056.417,3485.826 1053.813,3484.504C1042.58,3478.796 1018.549,3467.033 990.392,3458.332C977.63,3454.389 967.827,3452.308 961.994,3451.79C961.947,3451.786 961.9,3451.782 961.854,3451.778C959.621,3452.186 957.574,3452.593 955.726,3452.99C955.726,3452.99 955.726,3452.989 955.726,3452.988C957.402,3452.626 959.448,3452.215 961.834,3451.777C958.612,3451.503 957.081,3451.748 956.358,3452.091C957.091,3451.736 958.657,3451.474 961.986,3451.749ZM956.358,3452.091C955.631,3452.442 955.722,3452.885 955.726,3452.988C955.72,3452.879 955.629,3452.436 956.358,3452.091ZM1219.898,4008.819C1219.78,4008.733 1229.241,3997.378 1237.011,3978.309C1287.41,3854.622 1171.753,3652.782 1040.158,3568.033C977.454,3527.651 924.71,3522.729 891.094,3536.951C828.516,3563.427 813.857,3662.286 846.645,3782.299C847.806,3786.549 854.026,3809.314 863.524,3834.72C915.052,3972.557 1059.001,4080.656 1160.286,4096.366C1275.885,4114.298 1369.487,4009.353 1392.023,3918.864C1397.704,3896.052 1397.04,3881.404 1397.117,3876.846C1397.605,3848.052 1403.07,3710.837 1293.827,3575.708C1267.011,3542.538 1240.961,3519.259 1233.765,3513.176C1211.507,3494.356 1159.634,3456.345 1067.354,3447.705C1024.185,3443.662 984.12,3447.729 962.007,3451.75C978.272,3453.1 1015.91,3464.773 1055.711,3484.319C1091.284,3501.789 1118.388,3520.678 1119.665,3521.55C1157.997,3547.721 1183.028,3572.832 1198.544,3589.578C1239.12,3633.371 1258.614,3673.213 1268.574,3694.213C1291.483,3742.513 1299.964,3780.953 1304.087,3807.311C1317.443,3892.71 1294.125,3953.574 1281.73,3980.801C1268.902,4008.977 1253.549,4029.339 1246.275,4034.618C1243.318,4036.764 1240.757,4037.476 1239.811,4037.74C1238.805,4038.02 1233.176,4039.589 1226.821,4036.493C1219.017,4032.691 1217.216,4025.491 1216.91,4024.269C1216.114,4021.085 1216.4,4018.334 1216.454,4017.819C1216.679,4015.654 1216.977,4014.876 1217.07,4014.633C1218.228,4011.606 1218.741,4011.843 1219.898,4008.819Z" style="fill:rgb(99,163,117);"/>
        </g>
        <g transform="matrix(-1.017881,0,0,1.017881,3544.692419,-57.908083)">
            <path d="M1234.979,4019.749C1351.909,3858.427 1120.329,3531.138 941.97,3517.645C816.352,3508.142 786.819,3656.229 853.93,3835.415C909.574,3983.986 1070.253,4097.517 1174.451,4103.663C1305.619,4111.399 1401.577,3970.641 1400.274,3879.38C1399.964,3857.617 1412.469,3675.91 1243.233,3520.396C1127.166,3413.741 955.726,3452.99 955.726,3452.99C954.247,3442.112 1166.499,3495.424 1255.723,3680.794C1356.932,3891.064 1239.934,4018.513 1234.979,4019.749Z" style="fill:rgb(99,163,117);"/>
            <path d="M1282.076,3882.497C1280.484,3869.824 1277.951,3856.315 1274.271,3841.951C1231.475,3674.892 1058.638,3496.67 922.913,3504.963C836.561,3510.24 793.72,3591.96 812.606,3718.536C814.418,3730.683 821.474,3777.181 845.619,3839.547C901.603,3984.149 1054.531,4094.401 1160.574,4108.095C1244.485,4118.931 1318.196,4069.407 1362.782,4001.752C1386.559,3965.671 1404.171,3920.624 1403.45,3879.346C1403.114,3860.074 1411.846,3712.037 1292.664,3570.404C1288.945,3565.983 1269.127,3542.433 1242.451,3518.512C1219.117,3497.588 1180.377,3470.537 1120.682,3456.056C1053.632,3439.792 989.869,3446.612 961.955,3451.75C957.882,3451.415 955.692,3451.819 955.718,3452.866C955.719,3452.899 955.723,3452.932 955.725,3452.965C955.725,3452.973 955.726,3452.98 955.726,3452.988C955.726,3452.989 955.726,3452.99 955.726,3452.99C956.676,3452.786 958.785,3452.346 961.917,3451.781C965.211,3452.071 969.579,3452.845 974.427,3453.966C1000.669,3460.036 1028.448,3472.503 1032.977,3474.536C1070.372,3491.319 1096.251,3508.845 1101.021,3512.021C1109.955,3517.97 1151.139,3545.24 1188.743,3587.678C1202.081,3602.73 1212.759,3617.83 1214.695,3620.566C1228.567,3640.183 1251.207,3675.573 1268.541,3729.74C1283.412,3776.206 1285.168,3809.683 1285.672,3821.17C1286.208,3833.382 1286.571,3855.52 1282.076,3882.497ZM962.049,3451.757C980.761,3448.395 1035.274,3440.724 1097.543,3451.772C1188.29,3467.872 1233.629,3512.119 1251.342,3529.295C1350.436,3625.378 1387.923,3734.72 1395.714,3825.17C1398.058,3852.39 1397.11,3870.315 1397.102,3880.471C1397.029,3969.8 1302.316,4106.477 1174.785,4097.994C1090.241,4092.37 966.13,4012.929 896.323,3900.797C873.496,3864.13 863.253,3835.13 856.117,3813.599C812.001,3680.502 823.406,3569.095 887.806,3538.428C917.785,3524.153 960.3,3527.104 1007.139,3549.488C1135.866,3611.006 1263.819,3800.184 1247.68,3935.998C1243.268,3973.133 1229.192,3996.224 1219.898,4008.819C1219.895,4008.823 1219.892,4008.827 1219.889,4008.832C1219.63,4009.183 1219.483,4009.457 1219.509,4009.734C1218.744,4011.388 1217.722,4012.93 1217.07,4014.633C1216.683,4015.643 1216.566,4016.743 1216.454,4017.819C1215.554,4026.454 1220.713,4031.79 1221.588,4032.695C1227.622,4038.936 1235.026,4038.417 1236.282,4038.329C1236.943,4038.283 1240.474,4038.035 1244.215,4035.945C1245.186,4035.403 1249.955,4033.195 1260.337,4018.549C1285.918,3982.461 1297.079,3939.001 1297.438,3937.704C1315.332,3872.914 1306.371,3817.483 1301.33,3791.68C1292.157,3744.735 1274.948,3706.289 1261.414,3679.587C1238.117,3633.622 1210.469,3601.2 1186.514,3577.015C1144.461,3534.56 1101.685,3509.14 1078.104,3496.033C1074.691,3494.136 1045.378,3477.5 1007.902,3463.941C986.662,3456.256 970.43,3452.464 962.049,3451.757Z" style="fill:rgb(99,163,117);"/>
        </g>
    </g>
    <g id="mam-holder" serif:id="mam holder">
        <path d="M1353.484,2681.06C1204.177,2864.704 1090.199,3071.902 1091.018,3355.63C1397.549,3466.767 1524.163,3654.667 1489.83,3911.24C1661.665,3979.022 1838.435,3975.259 2019.36,3911.24C2012.219,3623.547 2130.734,3429.144 2423.556,3364.152C2418.71,3120.728 2334.843,2892.669 2166.382,2681.06C1920.439,2797.834 1653.968,2818.81 1353.484,2681.06Z" style="fill:rgb(99,163,117);stroke:rgb(99,163,117);stroke-width:62.5px;"/>
    </g>
    <g id="flowers" transform="matrix(1,0,0,1,-1221.117217,-1061.041539)">
        <g id="flower-top" serif:id="flower top" transform="matrix(1,0,0,1,1211.875695,1118.254397)">
            <circle cx="2146.91" cy="2825.979" r="34.776" style="fill:none;stroke:white;stroke-width:37.92px;"/>
            <g transform="matrix(0.305322,0.952249,-0.674522,0.216274,3305.761174,246.109008)">
                <path d="M2097.167,2788.562C2097.167,2788.562 2127.101,2898.26 2127.101,2945.274C2127.101,2968.597 2113.688,2987.533 2097.167,2987.533C2080.646,2987.533 2067.233,2968.597 2067.233,2945.274C2067.233,2898.26 2097.167,2788.562 2097.167,2788.562Z" style="fill:none;stroke:white;stroke-width:43.76px;"/>
            </g>
            <g transform="matrix(-0.300947,0.80012,-0.500446,-0.188231,4073.741066,1637.590347)">
                <path d="M2097.167,2788.562C2097.167,2788.562 2127.101,2894.341 2127.101,2939.674C2127.101,2966.088 2113.688,2987.533 2097.167,2987.533C2080.646,2987.533 2067.233,2966.088 2067.233,2939.674C2067.233,2894.341 2097.167,2788.562 2097.167,2788.562Z" style="fill:none;stroke:white;stroke-width:15.19px;"/>
            </g>
            <g transform="matrix(-0.252864,0.672281,-0.527031,-0.198231,4060.950765,1939.64069)">
                <path d="M2097.167,2788.562C2097.167,2788.562 2127.101,2901.113 2127.101,2949.349C2127.101,2970.423 2113.688,2987.533 2097.167,2987.533C2080.646,2987.533 2067.233,2970.423 2067.233,2949.349C2067.233,2901.113 2097.167,2788.562 2097.167,2788.562Z" style="fill:none;stroke:white;stroke-width:46.49px;"/>
            </g>
            <g transform="matrix(-0.543596,0.469473,-0.368041,-0.426149,4261.364119,2957.464351)">
                <path d="M2081.653,2853.375C2089.314,2818.088 2097.167,2788.562 2097.167,2788.562C2097.167,2788.562 2106.656,2824.241 2114.949,2864.031C2104.653,2860.232 2093.577,2856.645 2081.653,2853.375Z" style="fill:none;stroke:white;stroke-width:46.49px;"/>
            </g>
            <g transform="matrix(-0.711956,0.094982,-0.07446,-0.558134,3846.335358,4095.371299)">
                <path d="M2074.833,2887.091C2083.702,2839.192 2097.167,2788.562 2097.167,2788.562C2097.167,2788.562 2109.364,2834.422 2118.186,2880.141C2116.91,2880.088 2115.702,2880.087 2114.378,2880.141C2100.554,2877.382 2086.878,2880.078 2074.833,2887.091Z" style="fill:none;stroke:white;stroke-width:46.49px;"/>
            </g>
            <g transform="matrix(-0.618913,-0.364484,0.285736,-0.485193,2696.59245,4871.060753)">
                <path d="M2079.46,2863.671C2087.735,2824.026 2097.167,2788.562 2097.167,2788.562C2097.167,2788.562 2109.506,2834.958 2118.34,2880.94C2105.699,2874.981 2091.874,2868.722 2079.46,2863.671Z" style="fill:none;stroke:white;stroke-width:46.49px;"/>
            </g>
            <g transform="matrix(-0.350127,-0.627147,0.491648,-0.27448,1592.423596,4878.71878)">
                <path d="M2080.43,2859.068C2088.454,2821.322 2097.167,2788.562 2097.167,2788.562C2097.167,2788.562 2105.894,2821.375 2113.923,2859.159C2103.226,2858.73 2091.613,2858.585 2080.43,2859.068Z" style="fill:none;stroke:white;stroke-width:46.49px;"/>
            </g>
            <g transform="matrix(0.811983,0.58368,-0.413448,0.575166,1542.084629,74.123806)">
                <path d="M2097.167,2788.562C2097.167,2788.562 2127.101,2898.26 2127.101,2945.274C2127.101,2968.597 2113.688,2987.533 2097.167,2987.533C2080.646,2987.533 2067.233,2968.597 2067.233,2945.274C2067.233,2898.26 2097.167,2788.562 2097.167,2788.562Z" style="fill:none;stroke:white;stroke-width:43.76px;"/>
            </g>
            <g transform="matrix(0.999997,0.002514,-0.001781,0.708344,54.994382,944.397008)">
                <path d="M2097.167,2788.562C2097.167,2788.562 2127.101,2898.26 2127.101,2945.274C2127.101,2968.597 2113.688,2987.533 2097.167,2987.533C2080.646,2987.533 2067.233,2968.597 2067.233,2945.274C2067.233,2898.26 2097.167,2788.562 2097.167,2788.562Z" style="fill:none;stroke:white;stroke-width:43.76px;"/>
            </g>
            <g transform="matrix(0.749515,-0.661987,0.468916,0.530916,-681.374801,2813.357244)">
                <path d="M2097.167,2788.562C2097.167,2788.562 2127.101,2898.26 2127.101,2945.274C2127.101,2968.597 2113.688,2987.533 2097.167,2987.533C2080.646,2987.533 2067.233,2968.597 2067.233,2945.274C2067.233,2898.26 2097.167,2788.562 2097.167,2788.562Z" style="fill:none;stroke:white;stroke-width:43.76px;"/>
            </g>
            <g transform="matrix(0.152081,-0.516438,0.415337,0.122309,751.700788,3599.752316)">
                <path d="M2097.167,2788.562C2097.167,2788.562 2127.101,2901.787 2127.101,2950.313C2127.101,2970.855 2113.688,2987.533 2097.167,2987.533C2080.646,2987.533 2067.233,2970.855 2067.233,2950.313C2067.233,2901.787 2097.167,2788.562 2097.167,2788.562Z" style="fill:none;stroke:white;stroke-width:77.62px;"/>
            </g>
        </g>
        <g id="flower-bottom" serif:id="flower bottom" transform="matrix(-0.726139,-0.687548,0.687548,-0.726139,1078.542044,7163.757815)">
            <g transform="matrix(1,0,0,1,-1593.31425,55.449148)">
                <path d="M2161.996,2857.316C2157.432,2859.519 2152.314,2860.755 2146.91,2860.755C2136.928,2860.755 2127.922,2856.54 2121.577,2849.794C2135.169,2852.955 2149.132,2855.415 2161.996,2857.316Z" style="fill:white;"/>
            </g>
            <g transform="matrix(0.305322,0.952249,-0.674522,0.216274,1712.446923,301.558156)">
                <path d="M2097.167,2788.562C2097.167,2788.562 2127.101,2898.26 2127.101,2945.274C2127.101,2968.597 2113.688,2987.533 2097.167,2987.533C2080.646,2987.533 2067.233,2968.597 2067.233,2945.274C2067.233,2898.26 2097.167,2788.562 2097.167,2788.562Z" style="fill:white;"/>
            </g>
            <g transform="matrix(-0.300947,0.80012,-0.500446,-0.188231,2480.426815,1693.039495)">
                <path d="M2111.927,2846.23C2119.478,2878.53 2127.101,2916.798 2127.101,2939.674C2127.101,2966.088 2113.688,2987.533 2097.167,2987.533C2088.574,2987.533 2080.822,2981.731 2075.361,2972.447C2075.753,2971.832 2076.136,2971.192 2076.508,2970.529C2100.056,2928.564 2099.046,2927.112 2109.895,2873.155C2110.974,2867.787 2111.869,2858.219 2111.927,2846.23Z" style="fill:white;"/>
            </g>
            <g transform="matrix(0.811983,0.58368,-0.413448,0.575166,-51.229622,129.572953)">
                <path d="M2097.167,2788.562C2097.167,2788.562 2127.101,2898.26 2127.101,2945.274C2127.101,2968.597 2113.688,2987.533 2097.167,2987.533C2080.646,2987.533 2067.233,2968.597 2067.233,2945.274C2067.233,2898.26 2097.167,2788.562 2097.167,2788.562Z" style="fill:white;"/>
            </g>
            <g transform="matrix(0.999997,0.002514,-0.001781,0.708344,-1538.319869,999.846156)">
                <path d="M2097.167,2788.562C2097.167,2788.562 2127.101,2898.26 2127.101,2945.274C2127.101,2968.597 2113.688,2987.533 2097.167,2987.533C2080.646,2987.533 2067.233,2968.597 2067.233,2945.274C2067.233,2898.26 2097.167,2788.562 2097.167,2788.562Z" style="fill:white;"/>
            </g>
            <g transform="matrix(0.749515,-0.661987,0.468916,0.530916,-2274.689051,2868.806392)">
                <path d="M2097.167,2788.562C2097.167,2788.562 2127.101,2898.26 2127.101,2945.274C2127.101,2968.597 2113.688,2987.533 2097.167,2987.533C2080.646,2987.533 2067.233,2968.597 2067.233,2945.274C2067.233,2898.26 2097.167,2788.562 2097.167,2788.562Z" style="fill:white;"/>
            </g>
            <g transform="matrix(0.152081,-0.516438,0.415337,0.122309,-841.613462,3655.201464)">
                <path d="M2103.541,2986.686C2101.487,2987.24 2099.354,2987.533 2097.167,2987.533C2080.646,2987.533 2067.233,2970.855 2067.233,2950.313C2067.233,2928.725 2073.158,2894.332 2079.735,2862.801C2088.291,2908.338 2097.052,2953.549 2103.541,2986.686Z" style="fill:white;"/>
            </g>
            <g id="Layer2" transform="matrix(-0.726139,0.687548,-0.687548,-0.726139,5672.672825,4486.469255)">
                <g transform="matrix(1,0,0,1,1195.091524,1055.216166)">
                    <path d="M1705.701,3837.376C1697.249,3790.422 1640.199,3716.703 1640.199,3716.703L1621.833,3754.032C1621.833,3754.032 1659.216,3768.823 1676.824,3844.889C1694.432,3920.956 1688.093,3924.478 1683.163,3947.72C1678.233,3970.963 1719.083,3947.72 1719.083,3947.72C1719.083,3947.72 1721.9,3874.94 1735.283,3856.041C1748.665,3837.142 1800.08,3772.344 1835.296,3763.892" style="fill:white;"/>
                </g>
                <g transform="matrix(1,0,0,1,1195.091524,1055.216166)">
                    <path d="M1835.296,3763.892L1762.092,3872.358C1765.996,3878.493 1838.437,3856.064 1869.104,3818.125C1898.238,3782.081 1902.207,3700.503 1902.207,3700.503C1902.207,3700.503 1784.424,3705.77 1746.612,3749.411C1690.144,3814.583 1710.631,3859.915 1710.631,3859.915" style="fill:white;"/>
                </g>
            </g>
        </g>
    </g>
    <g id="face2" serif:id="face">
        <path d="M1473.857,2044.501L1474.847,2079.146L1391.204,2124.184L1473.857,2171.203L1473.857,2207.333L1354.58,2140.517L1354.58,2108.347L1473.857,2044.501ZM2028.649,2042.352L2147.926,2106.197L2147.926,2138.368L2028.649,2205.183L2028.649,2169.053L2111.302,2122.035L2027.659,2076.997L2028.649,2042.352ZM1771.868,2156.458L1797.5,2156.853L1741.503,2331.154L1715.476,2331.154L1771.868,2156.458Z" style="fill:none;stroke:white;stroke-width:37.92px;"/>
    </g>
</svg>
